<svg width="8" height="8" viewBox="0 0 8 8" fill="none" xmlns="http://www.w3.org/2000/svg">
<g clip-path="url(#clip0_1_189)">
<path d="M7.56202 3.376H7.56247H4.62498V0.444033C4.62498 0.202733 4.42959 0.000976562 4.18829 0.000976562H3.81242C3.57119 0.000976562 3.37496 0.202733 3.37496 0.444033V3.376H0.437528C0.196358 3.376 0 3.57112 0 3.81249V4.1905C0 4.43167 0.196293 4.62595 0.437528 4.62595H3.37502V7.56852C3.37502 7.80969 3.57119 8.00091 3.81249 8.00091H4.18836C4.42966 8.00091 4.62504 7.80962 4.62504 7.56852V4.62595H7.56202C7.80332 4.62595 8 4.43161 8 4.1905V3.81249C8 3.57112 7.80332 3.376 7.56202 3.376Z" fill="#191919"/>
</g>
<defs>
<clipPath id="clip0_1_189">
<rect width="8" height="8" fill="white"/>
</clipPath>
</defs>
</svg>
