<svg width="46" height="46" viewBox="0 0 46 46" fill="none" xmlns="http://www.w3.org/2000/svg">
<g clip-path="url(#clip0_1_71)">
<path d="M38.5826 20.0773L37.9632 18.914L36.7865 19.5076C35.8865 19.9615 34.9138 20.188 33.8991 20.1828C30.4252 20.1627 27.5989 17.2782 27.5989 13.753V11.4876C27.5989 7.81329 26.3403 4.20526 24.0549 1.32822L23 0L9.46866 17.0351C6.876 20.1309 5.41646 24.0589 5.35834 28.098C5.29053 32.8138 7.10146 37.2895 10.4577 40.7003C13.8123 44.1096 18.2552 45.9916 22.9681 46H22.9831H22.9847H23.0002H23.0004C27.7072 45.9998 32.1331 44.1693 35.4648 40.8434C38.8044 37.5097 40.6437 33.0751 40.6437 28.3563C40.6436 25.4723 39.9309 22.6094 38.5826 20.0773ZM27.7826 35.83C28.0425 35.8306 28.3062 35.811 28.5645 35.7693C28.7346 36.3197 28.8203 36.8936 28.8203 37.4851C28.8203 39.0417 28.2136 40.5046 27.1119 41.6043C26.0127 42.7015 24.5528 43.3054 22.9999 43.3054C22.9962 43.3054 22.9924 43.3054 22.9886 43.3054C21.4388 43.3024 19.9748 42.6804 18.8662 41.5537C17.7567 40.4262 17.1579 38.9507 17.1803 37.3993C17.1994 36.0654 17.6821 34.7681 18.5396 33.7465L22.8031 28.3797C22.9866 28.9201 23.0827 29.4903 23.0827 30.0656V31.062C23.0828 33.676 25.1912 35.8149 27.7826 35.83ZM33.561 38.9364C32.68 39.8158 31.7088 40.5718 30.6682 41.1958C31.2221 40.0537 31.515 38.7921 31.515 37.4851C31.515 36.0933 31.1709 34.7114 30.5199 33.4889L29.9005 32.3256L28.7238 32.9192C28.4359 33.0644 28.1251 33.1363 27.7982 33.1353C26.684 33.1288 25.7775 32.1987 25.7775 31.0619V30.0655C25.7775 28.2796 25.1658 26.526 24.0551 25.1276L23 23.7994L16.4635 32.0285C15.2161 33.5216 14.514 35.4144 14.4859 37.3604C14.4668 38.6904 14.7572 39.9801 15.3241 41.151C14.2654 40.5057 13.2762 39.7226 12.3784 38.8103C9.53154 35.9171 7.99538 32.1264 8.05278 28.1367C8.10209 24.7099 9.34219 21.3774 11.5447 18.7532L11.5563 18.7393L22.9296 4.42111C24.2115 6.54211 24.9043 8.99662 24.9043 11.4876V13.753C24.9043 18.7555 28.9323 22.8488 33.8835 22.8775C34.8522 22.8848 35.8136 22.7321 36.7288 22.4358C37.5296 24.2948 37.9489 26.3191 37.9489 28.3564C37.9489 32.3545 36.3906 36.1118 33.561 38.9364Z" fill="white"/>
</g>
<defs>
<clipPath id="clip0_1_71">
<rect width="46" height="46" fill="white"/>
</clipPath>
</defs>
</svg>
