<svg width="284" height="60" viewBox="0 0 284 60" fill="none" xmlns="http://www.w3.org/2000/svg">
<rect width="284" height="60" rx="1" fill="#ECCF94"/>
<mask id="mask0_1_227" style="mask-type:alpha" maskUnits="userSpaceOnUse" x="0" y="0" width="284" height="60">
<rect width="284" height="60" rx="1" fill="#ECCF94"/>
</mask>
<g mask="url(#mask0_1_227)">
<g filter="url(#filter0_f_1_227)">
<ellipse cx="73.9995" cy="79.0015" rx="92" ry="62" fill="url(#paint0_linear_1_227)" fill-opacity="0.8"/>
</g>
<g filter="url(#filter1_f_1_227)">
<ellipse cx="92" cy="62" rx="92" ry="62" transform="matrix(-1 0 0 1 301 -81.9985)" fill="url(#paint1_linear_1_227)" fill-opacity="0.8"/>
</g>
</g>
<path d="M75.9483 35H73.8063V24.02H67.8303V35H65.7063V22.22H75.9483V35ZM87.1381 30.482C87.1381 31.886 86.7061 33.038 85.8421 33.938C84.9901 34.826 83.8921 35.27 82.5481 35.27C81.1921 35.27 80.0821 34.826 79.2181 33.938C78.3661 33.05 77.9401 31.898 77.9401 30.482C77.9401 29.054 78.3661 27.896 79.2181 27.008C80.0821 26.12 81.1921 25.676 82.5481 25.676C83.8921 25.676 84.9901 26.126 85.8421 27.026C86.7061 27.914 87.1381 29.066 87.1381 30.482ZM79.9561 30.482C79.9561 31.418 80.1901 32.174 80.6581 32.75C81.1261 33.314 81.7561 33.596 82.5481 33.596C83.3161 33.596 83.9341 33.314 84.4021 32.75C84.8821 32.174 85.1221 31.418 85.1221 30.482C85.1221 29.534 84.8881 28.778 84.4201 28.214C83.9521 27.638 83.3281 27.35 82.5481 27.35C81.7561 27.35 81.1261 27.638 80.6581 28.214C80.1901 28.778 79.9561 29.534 79.9561 30.482ZM87.6185 34.982L87.7985 33.38C88.1225 33.428 88.3505 33.452 88.4825 33.452C89.0105 33.416 89.3405 33.212 89.4725 32.84C89.6045 32.468 89.6825 31.568 89.7065 30.14L89.7425 25.964H96.7625V35H94.7825V27.566H91.5425L91.5065 30.176C91.4825 32.084 91.2965 33.374 90.9485 34.046C90.6005 34.706 89.8925 35.06 88.8245 35.108C88.3685 35.108 87.9665 35.066 87.6185 34.982ZM104.717 25.964H106.733L103.187 36.116C102.899 36.98 102.533 37.592 102.089 37.952C101.645 38.312 101.027 38.492 100.235 38.492C99.6825 38.492 99.1545 38.426 98.6505 38.294L98.9745 36.8C99.4065 36.872 99.7485 36.908 100.001 36.908C100.361 36.908 100.661 36.812 100.901 36.62C101.141 36.428 101.333 36.098 101.477 35.63L101.531 35.468L98.1285 25.964H100.217L101.099 28.61C101.711 30.422 102.173 31.838 102.485 32.858C102.989 31.202 103.439 29.78 103.835 28.592L104.717 25.964ZM113.498 25.964H115.478V35H113.498V31.598C112.802 31.886 112.028 32.03 111.176 32.03C109.988 32.03 109.124 31.79 108.584 31.31C108.044 30.83 107.774 30.092 107.774 29.096V25.964H109.754V28.898C109.754 29.414 109.886 29.792 110.15 30.032C110.426 30.26 110.882 30.374 111.518 30.374C112.346 30.374 113.006 30.26 113.498 30.032V25.964ZM123.869 25.964H126.029V35H124.175V31.688C124.175 29.972 124.199 28.712 124.247 27.908C123.371 29.396 122.759 30.428 122.411 31.004L119.945 35H117.785V25.964H119.621V29.456C119.621 30.776 119.603 31.97 119.567 33.038C120.227 31.862 120.833 30.83 121.385 29.942L123.869 25.964ZM135.514 27.566H132.508V35H130.528V27.566H127.54V25.964H135.514V27.566ZM137.033 35V25.964H139.013V28.808H141.389C142.445 28.808 143.285 29.084 143.909 29.636C144.545 30.188 144.863 30.944 144.863 31.904C144.863 32.864 144.545 33.62 143.909 34.172C143.285 34.724 142.445 35 141.389 35H137.033ZM139.013 33.38H141.119C142.271 33.38 142.847 32.888 142.847 31.904C142.847 30.92 142.271 30.428 141.119 30.428H139.013V33.38ZM156.76 35L154.042 31.112H152.53V35H150.55V25.964H152.53V29.492H154.06L156.562 25.964H158.686L155.626 30.212L158.992 35H156.76ZM167.727 28.826V35H165.945V33.974C165.345 34.85 164.349 35.288 162.957 35.288C161.985 35.288 161.199 35.072 160.599 34.64C160.011 34.208 159.717 33.572 159.717 32.732C159.717 31.784 160.071 31.082 160.779 30.626C161.511 30.146 162.507 29.792 163.767 29.564L165.837 29.186V28.862C165.837 28.37 165.669 27.992 165.333 27.728C164.997 27.452 164.541 27.314 163.965 27.314C163.413 27.314 162.927 27.428 162.507 27.656C162.099 27.872 161.619 28.256 161.067 28.808L159.825 27.656C160.929 26.336 162.291 25.676 163.911 25.676C165.123 25.676 166.059 25.958 166.719 26.522C167.391 27.086 167.727 27.854 167.727 28.826ZM165.837 31.454V30.626L164.271 30.95C163.323 31.154 162.651 31.376 162.255 31.616C161.859 31.844 161.661 32.18 161.661 32.624C161.661 32.96 161.799 33.224 162.075 33.416C162.363 33.608 162.753 33.704 163.245 33.704C164.001 33.704 164.619 33.506 165.099 33.11C165.591 32.702 165.837 32.15 165.837 31.454ZM176.893 27.566H173.887V35H171.907V27.566H168.919V25.964H176.893V27.566ZM185.779 28.826V35H183.997V33.974C183.397 34.85 182.401 35.288 181.009 35.288C180.037 35.288 179.251 35.072 178.651 34.64C178.063 34.208 177.769 33.572 177.769 32.732C177.769 31.784 178.123 31.082 178.831 30.626C179.563 30.146 180.559 29.792 181.819 29.564L183.889 29.186V28.862C183.889 28.37 183.721 27.992 183.385 27.728C183.049 27.452 182.593 27.314 182.017 27.314C181.465 27.314 180.979 27.428 180.559 27.656C180.151 27.872 179.671 28.256 179.119 28.808L177.877 27.656C178.981 26.336 180.343 25.676 181.963 25.676C183.175 25.676 184.111 25.958 184.771 26.522C185.443 27.086 185.779 27.854 185.779 28.826ZM183.889 31.454V30.626L182.323 30.95C181.375 31.154 180.703 31.376 180.307 31.616C179.911 31.844 179.713 32.18 179.713 32.624C179.713 32.96 179.851 33.224 180.127 33.416C180.415 33.608 180.805 33.704 181.297 33.704C182.053 33.704 182.671 33.506 183.151 33.11C183.643 32.702 183.889 32.15 183.889 31.454ZM187.005 34.982L187.185 33.38C187.509 33.428 187.737 33.452 187.869 33.452C188.397 33.416 188.727 33.212 188.859 32.84C188.991 32.468 189.069 31.568 189.093 30.14L189.129 25.964H196.149V35H194.169V27.566H190.929L190.893 30.176C190.869 32.084 190.683 33.374 190.335 34.046C189.987 34.706 189.279 35.06 188.211 35.108C187.755 35.108 187.353 35.066 187.005 34.982ZM207.091 30.482C207.091 31.886 206.659 33.038 205.795 33.938C204.943 34.826 203.845 35.27 202.501 35.27C201.145 35.27 200.035 34.826 199.171 33.938C198.319 33.05 197.893 31.898 197.893 30.482C197.893 29.054 198.319 27.896 199.171 27.008C200.035 26.12 201.145 25.676 202.501 25.676C203.845 25.676 204.943 26.126 205.795 27.026C206.659 27.914 207.091 29.066 207.091 30.482ZM199.909 30.482C199.909 31.418 200.143 32.174 200.611 32.75C201.079 33.314 201.709 33.596 202.501 33.596C203.269 33.596 203.887 33.314 204.355 32.75C204.835 32.174 205.075 31.418 205.075 30.482C205.075 29.534 204.841 28.778 204.373 28.214C203.905 27.638 203.281 27.35 202.501 27.35C201.709 27.35 201.079 27.638 200.611 28.214C200.143 28.778 199.909 29.534 199.909 30.482ZM215.157 27.566H210.837V35H208.857V25.964H215.157V27.566ZM219.254 22.22V26.072L218.786 31.148H217.58L217.112 26.072V22.22H219.254ZM219.29 32.696V35H217.058V32.696H219.29Z" fill="#121212"/>
<defs>
<filter id="filter0_f_1_227" x="-68.0005" y="-32.9985" width="284" height="224" filterUnits="userSpaceOnUse" color-interpolation-filters="sRGB">
<feFlood flood-opacity="0" result="BackgroundImageFix"/>
<feBlend mode="normal" in="SourceGraphic" in2="BackgroundImageFix" result="shape"/>
<feGaussianBlur stdDeviation="25" result="effect1_foregroundBlur_1_227"/>
</filter>
<filter id="filter1_f_1_227" x="66.9995" y="-131.999" width="284" height="224" filterUnits="userSpaceOnUse" color-interpolation-filters="sRGB">
<feFlood flood-opacity="0" result="BackgroundImageFix"/>
<feBlend mode="normal" in="SourceGraphic" in2="BackgroundImageFix" result="shape"/>
<feGaussianBlur stdDeviation="25" result="effect1_foregroundBlur_1_227"/>
</filter>
<linearGradient id="paint0_linear_1_227" x1="133" y1="67.0015" x2="39.4995" y2="66.5015" gradientUnits="userSpaceOnUse">
<stop stop-color="#F98B4D"/>
<stop offset="1" stop-color="#FF6752"/>
</linearGradient>
<linearGradient id="paint1_linear_1_227" x1="151" y1="50" x2="57.5" y2="49.5" gradientUnits="userSpaceOnUse">
<stop stop-color="#FFD9C4"/>
<stop offset="1" stop-color="white"/>
</linearGradient>
</defs>
</svg>
