<svg width="537" height="346" viewBox="0 0 537 346" fill="none" xmlns="http://www.w3.org/2000/svg">
<rect width="537" height="346" rx="2" fill="#121212"/>
<g clip-path="url(#clip0_1_257)">
<path d="M44.3444 291.506L52.67 283.204C52.9427 282.932 53.3844 282.932 53.6567 283.205C53.9288 283.478 53.9281 283.92 53.6553 284.192L45.8253 292L53.6556 299.808C53.9283 300.08 53.929 300.522 53.657 300.795C53.5205 300.932 53.3416 301 53.1628 301C52.9844 301 52.8063 300.932 52.67 300.796L44.3444 292.494C44.213 292.363 44.1393 292.185 44.1393 292C44.1393 291.815 44.2133 291.637 44.3444 291.506Z" fill="#FFCF7A"/>
</g>
<g clip-path="url(#clip1_1_257)">
<path d="M87.6556 291.506L79.33 283.204C79.0573 282.932 78.6156 282.932 78.3433 283.205C78.0712 283.478 78.0719 283.92 78.3447 284.192L86.1747 292L78.3444 299.808C78.0717 300.08 78.071 300.522 78.343 300.795C78.4795 300.932 78.6584 301 78.8372 301C79.0156 301 79.1937 300.932 79.33 300.796L87.6556 292.494C87.787 292.363 87.8607 292.185 87.8607 292C87.8607 291.815 87.7867 291.637 87.6556 291.506Z" fill="#FFCF7A"/>
</g>
<defs>
<clipPath id="clip0_1_257">
<rect width="18" height="18" fill="white" transform="matrix(-1 0 0 1 58 283)"/>
</clipPath>
<clipPath id="clip1_1_257">
<rect width="18" height="18" fill="white" transform="translate(74 283)"/>
</clipPath>
</defs>
</svg>
