<svg width="254" height="60" viewBox="0 0 254 60" fill="none" xmlns="http://www.w3.org/2000/svg">
<rect x="0.000488281" width="254" height="60" rx="1" fill="#ECCF94"/>
<mask id="mask0_1_175" style="mask-type:alpha" maskUnits="userSpaceOnUse" x="0" y="0" width="255" height="61">
<rect y="0.000244141" width="254" height="60" rx="1" fill="#ECCF94"/>
</mask>
<g mask="url(#mask0_1_175)">
<g filter="url(#filter0_f_1_175)">
<ellipse cx="43.156" cy="79.0002" rx="113.437" ry="62" fill="url(#paint0_linear_1_175)" fill-opacity="0.8"/>
</g>
<g filter="url(#filter1_f_1_175)">
<ellipse cx="113.437" cy="62" rx="113.437" ry="62" transform="matrix(-1 0 0 1 323.05 -81.9998)" fill="url(#paint1_linear_1_175)" fill-opacity="0.8"/>
</g>
</g>
<path d="M68.317 28.61C68.341 30.542 67.777 32.144 66.625 33.416C65.485 34.688 63.985 35.312 62.125 35.288C60.253 35.288 58.747 34.664 57.607 33.416C56.479 32.156 55.915 30.554 55.915 28.61C55.915 26.666 56.479 25.07 57.607 23.822C58.747 22.562 60.253 21.932 62.125 21.932C63.985 21.908 65.485 22.532 66.625 23.804C67.777 25.076 68.341 26.678 68.317 28.61ZM59.209 25.136C58.465 26.024 58.093 27.182 58.093 28.61C58.093 30.038 58.465 31.196 59.209 32.084C59.953 32.972 60.925 33.416 62.125 33.416C63.337 33.416 64.309 32.978 65.041 32.102C65.773 31.214 66.139 30.05 66.139 28.61C66.139 27.17 65.773 26.012 65.041 25.136C64.309 24.248 63.337 23.804 62.125 23.804C60.925 23.804 59.953 24.248 59.209 25.136ZM74.1426 27.35C73.3386 27.35 72.7146 27.656 72.2706 28.268C71.8386 28.868 71.6226 29.606 71.6226 30.482C71.6226 31.358 71.8386 32.096 72.2706 32.696C72.7146 33.284 73.3386 33.578 74.1426 33.578C74.5986 33.578 75.0126 33.476 75.3846 33.272C75.7686 33.056 76.2066 32.678 76.6986 32.138L78.0126 33.236C77.4246 33.98 76.8306 34.508 76.2306 34.82C75.6306 35.12 74.9286 35.27 74.1246 35.27C72.7686 35.27 71.6766 34.838 70.8486 33.974C70.0206 33.098 69.6066 31.934 69.6066 30.482C69.6066 29.03 70.0266 27.866 70.8666 26.99C71.7066 26.114 72.7986 25.676 74.1426 25.676C74.8986 25.676 75.5646 25.808 76.1406 26.072C76.7166 26.336 77.2926 26.774 77.8686 27.386L76.6086 28.61C76.1286 28.13 75.7026 27.8 75.3306 27.62C74.9706 27.44 74.5746 27.35 74.1426 27.35ZM86.645 27.566H83.639V35H81.659V27.566H78.671V25.964H86.645V27.566ZM95.5317 28.826V35H93.7497V33.974C93.1497 34.85 92.1537 35.288 90.7617 35.288C89.7897 35.288 89.0037 35.072 88.4037 34.64C87.8157 34.208 87.5217 33.572 87.5217 32.732C87.5217 31.784 87.8757 31.082 88.5837 30.626C89.3157 30.146 90.3117 29.792 91.5717 29.564L93.6417 29.186V28.862C93.6417 28.37 93.4737 27.992 93.1377 27.728C92.8017 27.452 92.3457 27.314 91.7697 27.314C91.2177 27.314 90.7317 27.428 90.3117 27.656C89.9037 27.872 89.4237 28.256 88.8717 28.808L87.6297 27.656C88.7337 26.336 90.0957 25.676 91.7157 25.676C92.9277 25.676 93.8637 25.958 94.5237 26.522C95.1957 27.086 95.5317 27.854 95.5317 28.826ZM93.6417 31.454V30.626L92.0757 30.95C91.1277 31.154 90.4557 31.376 90.0597 31.616C89.6637 31.844 89.4657 32.18 89.4657 32.624C89.4657 32.96 89.6037 33.224 89.8797 33.416C90.1677 33.608 90.5577 33.704 91.0497 33.704C91.8057 33.704 92.4237 33.506 92.9037 33.11C93.3957 32.702 93.6417 32.15 93.6417 31.454ZM105.897 32.48C105.897 33.248 105.627 33.86 105.087 34.316C104.547 34.772 103.803 35 102.855 35H97.7794V25.964H102.549C103.485 25.964 104.235 26.18 104.799 26.612C105.375 27.032 105.663 27.614 105.663 28.358C105.663 28.826 105.525 29.24 105.249 29.6C104.973 29.948 104.601 30.2 104.133 30.356C104.685 30.5 105.117 30.758 105.429 31.13C105.741 31.49 105.897 31.94 105.897 32.48ZM99.7234 27.458V29.726H102.207C103.203 29.726 103.701 29.336 103.701 28.556C103.701 27.824 103.209 27.458 102.225 27.458H99.7234ZM102.261 33.47C103.353 33.47 103.899 33.074 103.899 32.282C103.899 31.49 103.341 31.094 102.225 31.094H99.7234V33.47H102.261ZM113.83 25.964H115.99V35H114.136V31.688C114.136 29.972 114.16 28.712 114.208 27.908C113.332 29.396 112.72 30.428 112.372 31.004L109.906 35H107.746V25.964H109.582V29.456C109.582 30.776 109.564 31.97 109.528 33.038C110.188 31.862 110.794 30.83 111.346 29.942L113.83 25.964ZM125.475 27.566H122.469V35H120.489V27.566H117.501V25.964H125.475V27.566ZM126.994 35V25.964H128.974V28.808H131.35C132.406 28.808 133.246 29.084 133.87 29.636C134.506 30.188 134.824 30.944 134.824 31.904C134.824 32.864 134.506 33.62 133.87 34.172C133.246 34.724 132.406 35 131.35 35H126.994ZM128.974 33.38H131.08C132.232 33.38 132.808 32.888 132.808 31.904C132.808 30.92 132.232 30.428 131.08 30.428H128.974V33.38ZM147.856 32.39C147.856 33.254 147.496 33.962 146.776 34.514C146.056 35.054 145.078 35.324 143.842 35.324C142.294 35.324 140.89 34.784 139.63 33.704L140.728 32.426C141.76 33.254 142.804 33.668 143.86 33.668C144.508 33.668 145.006 33.548 145.354 33.308C145.714 33.068 145.894 32.732 145.894 32.3C145.894 31.892 145.738 31.598 145.426 31.418C145.114 31.238 144.622 31.148 143.95 31.148H142.366V29.654H144.058C145.138 29.654 145.678 29.264 145.678 28.484C145.678 28.112 145.522 27.812 145.21 27.584C144.898 27.356 144.448 27.242 143.86 27.242C142.888 27.242 141.904 27.626 140.908 28.394L139.954 27.098C141.226 26.138 142.558 25.658 143.95 25.658C144.934 25.658 145.792 25.886 146.524 26.342C147.268 26.798 147.64 27.44 147.64 28.268C147.64 29.252 147.13 29.936 146.11 30.32C147.274 30.692 147.856 31.382 147.856 32.39ZM157.284 28.826V35H155.502V33.974C154.902 34.85 153.906 35.288 152.514 35.288C151.542 35.288 150.756 35.072 150.156 34.64C149.568 34.208 149.274 33.572 149.274 32.732C149.274 31.784 149.628 31.082 150.336 30.626C151.068 30.146 152.064 29.792 153.324 29.564L155.394 29.186V28.862C155.394 28.37 155.226 27.992 154.89 27.728C154.554 27.452 154.098 27.314 153.522 27.314C152.97 27.314 152.484 27.428 152.064 27.656C151.656 27.872 151.176 28.256 150.624 28.808L149.382 27.656C150.486 26.336 151.848 25.676 153.468 25.676C154.68 25.676 155.616 25.958 156.276 26.522C156.948 27.086 157.284 27.854 157.284 28.826ZM155.394 31.454V30.626L153.828 30.95C152.88 31.154 152.208 31.376 151.812 31.616C151.416 31.844 151.218 32.18 151.218 32.624C151.218 32.96 151.356 33.224 151.632 33.416C151.92 33.608 152.31 33.704 152.802 33.704C153.558 33.704 154.176 33.506 154.656 33.11C155.148 32.702 155.394 32.15 155.394 31.454ZM162.573 25.964H166.983V35H165.093V31.94H163.545L161.061 35H158.793L161.475 31.814C160.755 31.634 160.185 31.292 159.765 30.788C159.357 30.272 159.153 29.654 159.153 28.934C159.153 28.034 159.465 27.314 160.089 26.774C160.713 26.234 161.541 25.964 162.573 25.964ZM165.093 30.356V27.548H162.807C162.267 27.548 161.853 27.674 161.565 27.926C161.277 28.166 161.133 28.502 161.133 28.934C161.133 29.378 161.277 29.726 161.565 29.978C161.865 30.23 162.279 30.356 162.807 30.356H165.093ZM177.405 32.48C177.405 33.248 177.135 33.86 176.595 34.316C176.055 34.772 175.311 35 174.363 35H169.287V25.964H174.057C174.993 25.964 175.743 26.18 176.307 26.612C176.883 27.032 177.171 27.614 177.171 28.358C177.171 28.826 177.033 29.24 176.757 29.6C176.481 29.948 176.109 30.2 175.641 30.356C176.193 30.5 176.625 30.758 176.937 31.13C177.249 31.49 177.405 31.94 177.405 32.48ZM171.231 27.458V29.726H173.715C174.711 29.726 175.209 29.336 175.209 28.556C175.209 27.824 174.717 27.458 173.733 27.458H171.231ZM173.769 33.47C174.861 33.47 175.407 33.074 175.407 32.282C175.407 31.49 174.849 31.094 173.733 31.094H171.231V33.47H173.769ZM185.464 35L182.746 31.112H181.234V35H179.254V25.964H181.234V29.492H182.764L185.266 25.964H187.39L184.33 30.212L187.696 35H185.464ZM194.522 25.964H196.538L192.992 36.116C192.704 36.98 192.338 37.592 191.894 37.952C191.45 38.312 190.832 38.492 190.04 38.492C189.488 38.492 188.96 38.426 188.456 38.294L188.78 36.8C189.212 36.872 189.554 36.908 189.806 36.908C190.166 36.908 190.466 36.812 190.706 36.62C190.946 36.428 191.138 36.098 191.282 35.63L191.336 35.468L187.934 25.964H190.022L190.904 28.61C191.516 30.422 191.978 31.838 192.29 32.858C192.794 31.202 193.244 29.78 193.64 28.592L194.522 25.964Z" fill="#121212"/>
<defs>
<filter id="filter0_f_1_175" x="-120.281" y="-32.9998" width="326.874" height="224" filterUnits="userSpaceOnUse" color-interpolation-filters="sRGB">
<feFlood flood-opacity="0" result="BackgroundImageFix"/>
<feBlend mode="normal" in="SourceGraphic" in2="BackgroundImageFix" result="shape"/>
<feGaussianBlur stdDeviation="25" result="effect1_foregroundBlur_1_175"/>
</filter>
<filter id="filter1_f_1_175" x="46.1756" y="-132" width="326.874" height="224" filterUnits="userSpaceOnUse" color-interpolation-filters="sRGB">
<feFlood flood-opacity="0" result="BackgroundImageFix"/>
<feBlend mode="normal" in="SourceGraphic" in2="BackgroundImageFix" result="shape"/>
<feGaussianBlur stdDeviation="25" result="effect1_foregroundBlur_1_175"/>
</filter>
<linearGradient id="paint0_linear_1_175" x1="115.904" y1="67.0002" x2="0.618808" y2="66.2401" gradientUnits="userSpaceOnUse">
<stop stop-color="#F98B4D"/>
<stop offset="1" stop-color="#FF6752"/>
</linearGradient>
<linearGradient id="paint1_linear_1_175" x1="186.185" y1="50" x2="70.8999" y2="49.2398" gradientUnits="userSpaceOnUse">
<stop stop-color="#FFD9C4"/>
<stop offset="1" stop-color="white"/>
</linearGradient>
</defs>
</svg>
