<svg width="50" height="50" viewBox="0 0 50 50" fill="none" xmlns="http://www.w3.org/2000/svg">
<g clip-path="url(#clip0_1_75)">
<path d="M8.02134 23.7252C5.74568 26.5673 4.49237 30.1762 4.49237 33.887C4.49237 42.7718 11.7207 50.0001 20.6055 50.0001C29.4903 50.0001 36.7186 42.7718 36.7186 33.887C36.7186 30.1761 35.4653 26.5672 33.1896 23.7252L20.6056 8.00842L8.02134 23.7252ZM33.7891 33.887C33.7891 41.1563 27.875 47.0704 20.6056 47.0704C13.3362 47.0704 7.42213 41.1563 7.42213 33.887C7.42213 30.8393 8.44712 27.8807 10.3083 25.5563L20.6056 12.6958L30.9029 25.5564C32.764 27.8807 33.7891 30.8393 33.7891 33.887Z" fill="white"/>
<path d="M45.5077 11.8168C45.5077 10.1352 44.9555 8.55636 43.9108 7.25052L38.1835 0L32.4562 7.25061C31.4116 8.55636 30.8594 10.1353 30.8594 11.8169C30.8594 15.8554 34.145 19.141 38.1835 19.141C42.222 19.141 45.5077 15.8553 45.5077 11.8168ZM33.789 11.8168C33.789 10.8063 34.12 9.85928 34.7461 9.07784L38.1835 4.72632L41.6209 9.07784C42.247 9.85918 42.578 10.8062 42.578 11.8168C42.578 14.2399 40.6066 16.2113 38.1835 16.2113C35.7604 16.2113 33.789 14.2399 33.789 11.8168Z" fill="white"/>
</g>
<defs>
<clipPath id="clip0_1_75">
<rect width="50" height="50" fill="white"/>
</clipPath>
</defs>
</svg>
