<svg width="20" height="20" viewBox="0 0 20 20" fill="none" xmlns="http://www.w3.org/2000/svg">
<g clip-path="url(#clip0_1_113)">
<path d="M19.414 -0.000488281H14.414C14.0904 -0.000488281 13.8281 0.261853 13.8281 0.585445V2.92918C13.8281 3.25277 14.0904 3.51511 14.414 3.51511H15.1562V5.27291C15.1562 5.27369 15.1563 5.27439 15.1563 5.27517V11.3666C15.1563 12.4903 14.7795 13.5959 14.0933 14.4857C13.4182 15.3612 12.463 16.0075 11.3966 16.3012C10.1911 16.6332 8.85873 16.5195 7.7337 15.9734C6.74788 15.4948 5.92805 14.698 5.42106 13.7266C5.04196 13.0002 4.84368 12.1858 4.84368 11.3666V5.27517C4.84368 5.27439 4.8438 5.27369 4.8438 5.27291V3.51511H5.58598C5.90957 3.51511 6.17191 3.25277 6.17191 2.92918V0.585445C6.17191 0.261853 5.90957 -0.000488281 5.58598 -0.000488281H0.586017C0.262426 -0.000488281 8.39233e-05 0.261853 8.39233e-05 0.585445V2.92918C8.39233e-05 3.25277 0.262426 3.51511 0.586017 3.51511H1.3282C1.3282 3.51511 1.3282 5.27228 1.32816 5.27303V11.3666C1.32816 13.6041 2.21819 15.7841 3.779 17.3865C5.34364 18.9929 7.50733 19.9428 9.75001 19.9969C12.0049 20.0513 14.2076 19.2539 15.873 17.7244C17.5182 16.2136 18.5326 14.0878 18.6581 11.8565C18.6673 11.6934 18.6719 11.53 18.6719 11.3666C18.6719 11.3666 18.6719 5.27299 18.6718 5.27224V3.51511H19.414C19.7376 3.51511 19.9999 3.25277 19.9999 2.92918V0.585445C19.9999 0.261853 19.7376 -0.000488281 19.414 -0.000488281V-0.000488281ZM1.17195 1.17138H5.00004V2.34324H1.17195V1.17138ZM3.67193 3.51511V4.68698H2.50006V3.51511H3.67193ZM17.5076 11.367C17.4641 12.1273 17.3581 12.8779 17.1333 13.6111C16.6869 15.0674 15.7734 16.3758 14.563 17.3005C12.5166 18.8639 9.6745 19.2561 7.27628 18.3281C5.21688 17.5312 3.57744 15.8138 2.87975 13.7184C2.62768 12.9613 2.50006 12.1644 2.50006 11.3666V5.85896H3.67185V11.3666C3.67185 13.6044 4.9034 15.7157 6.84394 16.8276C8.95208 18.0356 11.7147 17.9161 13.6911 16.4902C14.7582 15.7203 15.5678 14.6026 15.9778 13.3522C16.7601 10.9661 16.0823 8.35851 16.3493 5.86165C16.7384 5.8613 17.1275 5.86095 17.5167 5.8606C17.3595 7.68363 17.6114 9.55311 17.5076 11.367ZM17.4999 4.68698H16.3281V3.51511H17.4999V4.68698ZM18.8281 2.34324H15V1.17138H18.8281V2.34324Z" fill="#FFCF7A"/>
</g>
<defs>
<clipPath id="clip0_1_113">
<rect width="20" height="20" fill="white" transform="translate(0 -0.000488281)"/>
</clipPath>
</defs>
</svg>
