<svg width="20" height="20" viewBox="0 0 20 20" fill="none" xmlns="http://www.w3.org/2000/svg">
<g clip-path="url(#clip0_1_110)">
<path d="M8.88889 -0.000488281H11.1111V11.1106H8.88889V-0.000488281Z" fill="#FFCF7A"/>
<path d="M15.0009 1.33801L13.888 3.26162C16.2873 4.64936 17.7778 7.23124 17.7778 9.99947C17.7778 14.2882 14.2888 17.7773 10 17.7773C5.71123 17.7773 2.22222 14.2882 2.22222 9.99947C2.22222 7.23124 3.71267 4.64936 6.11198 3.26162L4.99913 1.33801C1.91551 3.12187 0 6.44073 0 9.99947C0 15.5134 4.48611 19.9995 10 19.9995C15.5139 19.9995 20 15.5134 20 9.99947C20 6.44073 18.0845 3.12187 15.0009 1.33801Z" fill="#FFCF7A"/>
</g>
<defs>
<clipPath id="clip0_1_110">
<rect width="20" height="20" fill="white" transform="translate(0 -0.000488281)"/>
</clipPath>
</defs>
</svg>
