<svg width="279" height="60" viewBox="0 0 279 60" fill="none" xmlns="http://www.w3.org/2000/svg">
<rect x="0.5" y="0.5" width="278" height="59" rx="1.5" stroke="#CEB787"/>
<path d="M40.0747 23.786L38.8327 25.262C38.1967 24.71 37.6147 24.326 37.0867 24.11C36.5707 23.894 36.0067 23.786 35.3947 23.786C34.1467 23.786 33.1507 24.23 32.4067 25.118C31.6627 25.994 31.2907 27.152 31.2907 28.592C31.2907 30.044 31.6567 31.214 32.3887 32.102C33.1327 32.99 34.1107 33.434 35.3227 33.434C36.0187 33.434 36.6247 33.302 37.1407 33.038C37.6807 32.762 38.3047 32.312 39.0127 31.688L40.2907 33.128C39.4627 33.896 38.6707 34.448 37.9147 34.784C37.1587 35.12 36.3067 35.288 35.3587 35.288C33.4627 35.288 31.9447 34.664 30.8047 33.416C29.6767 32.168 29.1127 30.56 29.1127 28.592C29.1127 26.636 29.6767 25.04 30.8047 23.804C31.9447 22.556 33.4807 21.932 35.4127 21.932C36.3127 21.932 37.1227 22.076 37.8427 22.364C38.5627 22.652 39.3067 23.126 40.0747 23.786ZM49.8276 32.48C49.8276 33.248 49.5576 33.86 49.0176 34.316C48.4776 34.772 47.7336 35 46.7856 35H41.7096V25.964H46.4796C47.4156 25.964 48.1656 26.18 48.7296 26.612C49.3056 27.032 49.5936 27.614 49.5936 28.358C49.5936 28.826 49.4556 29.24 49.1796 29.6C48.9036 29.948 48.5316 30.2 48.0636 30.356C48.6156 30.5 49.0476 30.758 49.3596 31.13C49.6716 31.49 49.8276 31.94 49.8276 32.48ZM43.6536 27.458V29.726H46.1376C47.1336 29.726 47.6316 29.336 47.6316 28.556C47.6316 27.824 47.1396 27.458 46.1556 27.458H43.6536ZM46.1916 33.47C47.2836 33.47 47.8296 33.074 47.8296 32.282C47.8296 31.49 47.2716 31.094 46.1556 31.094H43.6536V33.47H46.1916ZM54.7184 25.964H59.1284V35H57.2384V31.94H55.6904L53.2064 35H50.9384L53.6204 31.814C52.9004 31.634 52.3304 31.292 51.9104 30.788C51.5024 30.272 51.2984 29.654 51.2984 28.934C51.2984 28.034 51.6104 27.314 52.2344 26.774C52.8584 26.234 53.6864 25.964 54.7184 25.964ZM57.2384 30.356V27.548H54.9524C54.4124 27.548 53.9984 27.674 53.7104 27.926C53.4224 28.166 53.2784 28.502 53.2784 28.934C53.2784 29.378 53.4224 29.726 53.7104 29.978C54.0104 30.23 54.4244 30.356 54.9524 30.356H57.2384ZM68.7763 32.39C68.7763 33.254 68.4163 33.962 67.6963 34.514C66.9763 35.054 65.9983 35.324 64.7623 35.324C63.2143 35.324 61.8103 34.784 60.5503 33.704L61.6483 32.426C62.6803 33.254 63.7243 33.668 64.7803 33.668C65.4283 33.668 65.9263 33.548 66.2743 33.308C66.6343 33.068 66.8143 32.732 66.8143 32.3C66.8143 31.892 66.6583 31.598 66.3463 31.418C66.0343 31.238 65.5423 31.148 64.8703 31.148H63.2863V29.654H64.9783C66.0583 29.654 66.5983 29.264 66.5983 28.484C66.5983 28.112 66.4423 27.812 66.1303 27.584C65.8183 27.356 65.3683 27.242 64.7803 27.242C63.8083 27.242 62.8243 27.626 61.8283 28.394L60.8743 27.098C62.1463 26.138 63.4783 25.658 64.8703 25.658C65.8543 25.658 66.7123 25.886 67.4443 26.342C68.1883 26.798 68.5603 27.44 68.5603 28.268C68.5603 29.252 68.0503 29.936 67.0303 30.32C68.1943 30.692 68.7763 31.382 68.7763 32.39ZM78.2041 28.826V35H76.4221V33.974C75.8221 34.85 74.8261 35.288 73.4341 35.288C72.4621 35.288 71.6761 35.072 71.0761 34.64C70.4881 34.208 70.1941 33.572 70.1941 32.732C70.1941 31.784 70.5481 31.082 71.2561 30.626C71.9881 30.146 72.9841 29.792 74.2441 29.564L76.3141 29.186V28.862C76.3141 28.37 76.1461 27.992 75.8101 27.728C75.4741 27.452 75.0181 27.314 74.4421 27.314C73.8901 27.314 73.4041 27.428 72.9841 27.656C72.5761 27.872 72.0961 28.256 71.5441 28.808L70.3021 27.656C71.4061 26.336 72.7681 25.676 74.3881 25.676C75.6001 25.676 76.5361 25.958 77.1961 26.522C77.8681 27.086 78.2041 27.854 78.2041 28.826ZM76.3141 31.454V30.626L74.7481 30.95C73.8001 31.154 73.1281 31.376 72.7321 31.616C72.3361 31.844 72.1381 32.18 72.1381 32.624C72.1381 32.96 72.2761 33.224 72.5521 33.416C72.8401 33.608 73.2301 33.704 73.7221 33.704C74.4781 33.704 75.0961 33.506 75.5761 33.11C76.0681 32.702 76.3141 32.15 76.3141 31.454ZM87.3701 27.566H84.3641V35H82.3841V27.566H79.3961V25.964H87.3701V27.566ZM88.8893 35V25.964H90.8693V28.808H93.2453C94.3013 28.808 95.1413 29.084 95.7653 29.636C96.4013 30.188 96.7193 30.944 96.7193 31.904C96.7193 32.864 96.4013 33.62 95.7653 34.172C95.1413 34.724 94.3013 35 93.2453 35H88.8893ZM90.8693 33.38H92.9753C94.1273 33.38 94.7033 32.888 94.7033 31.904C94.7033 30.92 94.1273 30.428 92.9753 30.428H90.8693V33.38ZM102.465 27.35C101.661 27.35 101.037 27.656 100.593 28.268C100.161 28.868 99.9454 29.606 99.9454 30.482C99.9454 31.358 100.161 32.096 100.593 32.696C101.037 33.284 101.661 33.578 102.465 33.578C102.921 33.578 103.335 33.476 103.707 33.272C104.091 33.056 104.529 32.678 105.021 32.138L106.335 33.236C105.747 33.98 105.153 34.508 104.553 34.82C103.953 35.12 103.251 35.27 102.447 35.27C101.091 35.27 99.9994 34.838 99.1714 33.974C98.3434 33.098 97.9294 31.934 97.9294 30.482C97.9294 29.03 98.3494 27.866 99.1894 26.99C100.029 26.114 101.121 25.676 102.465 25.676C103.221 25.676 103.887 25.808 104.463 26.072C105.039 26.336 105.615 26.774 106.191 27.386L104.931 28.61C104.451 28.13 104.025 27.8 103.653 27.62C103.293 27.44 102.897 27.35 102.465 27.35ZM110.793 25.964H115.203V35H113.313V31.94H111.765L109.281 35H107.013L109.695 31.814C108.975 31.634 108.405 31.292 107.985 30.788C107.577 30.272 107.373 29.654 107.373 28.934C107.373 28.034 107.685 27.314 108.309 26.774C108.933 26.234 109.761 25.964 110.793 25.964ZM113.313 30.356V27.548H111.027C110.487 27.548 110.073 27.674 109.785 27.926C109.497 28.166 109.353 28.502 109.353 28.934C109.353 29.378 109.497 29.726 109.785 29.978C110.085 30.23 110.499 30.356 111.027 30.356H113.313ZM125.51 27.35C124.706 27.35 124.082 27.656 123.638 28.268C123.206 28.868 122.99 29.606 122.99 30.482C122.99 31.358 123.206 32.096 123.638 32.696C124.082 33.284 124.706 33.578 125.51 33.578C125.966 33.578 126.38 33.476 126.752 33.272C127.136 33.056 127.574 32.678 128.066 32.138L129.38 33.236C128.792 33.98 128.198 34.508 127.598 34.82C126.998 35.12 126.296 35.27 125.492 35.27C124.136 35.27 123.044 34.838 122.216 33.974C121.388 33.098 120.974 31.934 120.974 30.482C120.974 29.03 121.394 27.866 122.234 26.99C123.074 26.114 124.166 25.676 125.51 25.676C126.266 25.676 126.932 25.808 127.508 26.072C128.084 26.336 128.66 26.774 129.236 27.386L127.976 28.61C127.496 28.13 127.07 27.8 126.698 27.62C126.338 27.44 125.942 27.35 125.51 27.35ZM142.777 25.964H145.639V35H143.785V31.238C143.785 29.882 143.809 28.586 143.857 27.35L143.695 27.836L143.317 28.934C143.125 29.474 142.939 29.972 142.759 30.428L141.085 35H139.321L137.647 30.428L136.567 27.368C136.615 28.628 136.639 29.918 136.639 31.238V35H134.803V25.964H137.737L139.141 29.798C139.561 30.902 139.927 31.982 140.239 33.038C140.683 31.634 141.049 30.554 141.337 29.798L142.777 25.964ZM154.882 32.246L156.034 33.452C155.398 34.1 154.762 34.568 154.126 34.856C153.502 35.132 152.806 35.27 152.038 35.27C150.61 35.27 149.482 34.844 148.654 33.992C147.826 33.128 147.412 31.976 147.412 30.536C147.412 29.108 147.814 27.944 148.618 27.044C149.434 26.132 150.514 25.676 151.858 25.676C153.178 25.676 154.198 26.072 154.918 26.864C155.65 27.644 156.016 28.73 156.016 30.122C156.016 30.35 156.004 30.62 155.98 30.932H149.356C149.428 31.748 149.698 32.396 150.166 32.876C150.634 33.356 151.27 33.596 152.074 33.596C152.59 33.596 153.04 33.5 153.424 33.308C153.808 33.116 154.294 32.762 154.882 32.246ZM149.41 29.492H154.072C154.036 28.796 153.82 28.25 153.424 27.854C153.028 27.446 152.488 27.242 151.804 27.242C151.168 27.242 150.64 27.44 150.22 27.836C149.812 28.22 149.542 28.772 149.41 29.492ZM165.679 35H163.699V31.112H159.811V35H157.831V25.964H159.811V29.492H163.699V25.964H165.679V35ZM174.921 32.246L176.073 33.452C175.437 34.1 174.801 34.568 174.165 34.856C173.541 35.132 172.845 35.27 172.077 35.27C170.649 35.27 169.521 34.844 168.693 33.992C167.865 33.128 167.451 31.976 167.451 30.536C167.451 29.108 167.853 27.944 168.657 27.044C169.473 26.132 170.553 25.676 171.897 25.676C173.217 25.676 174.237 26.072 174.957 26.864C175.689 27.644 176.055 28.73 176.055 30.122C176.055 30.35 176.043 30.62 176.019 30.932H169.395C169.467 31.748 169.737 32.396 170.205 32.876C170.673 33.356 171.309 33.596 172.113 33.596C172.629 33.596 173.079 33.5 173.463 33.308C173.847 33.116 174.333 32.762 174.921 32.246ZM169.449 29.492H174.111C174.075 28.796 173.859 28.25 173.463 27.854C173.067 27.446 172.527 27.242 171.843 27.242C171.207 27.242 170.679 27.44 170.259 27.836C169.851 28.22 169.581 28.772 169.449 29.492ZM176.867 37.25V33.398H177.749C178.469 32.618 178.835 31.286 178.847 29.402L178.883 25.964H185.813V33.398H187.109V37.25H185.201V35H178.775V37.25H176.867ZM179.801 33.398H183.833V27.566H180.683L180.647 29.474C180.611 31.454 180.329 32.762 179.801 33.398ZM199.585 35L197.029 31.112H195.769V35H193.879V31.112H192.619L190.063 35H187.867L191.053 30.212L188.155 25.964H190.297L192.619 29.492H193.879V25.964H195.769V29.492H197.047L199.351 25.964H201.493L198.613 30.212L201.799 35H199.585ZM209.638 32.246L210.79 33.452C210.154 34.1 209.518 34.568 208.882 34.856C208.258 35.132 207.562 35.27 206.794 35.27C205.366 35.27 204.238 34.844 203.41 33.992C202.582 33.128 202.168 31.976 202.168 30.536C202.168 29.108 202.57 27.944 203.374 27.044C204.19 26.132 205.27 25.676 206.614 25.676C207.934 25.676 208.954 26.072 209.674 26.864C210.406 27.644 210.772 28.73 210.772 30.122C210.772 30.35 210.76 30.62 210.736 30.932H204.112C204.184 31.748 204.454 32.396 204.922 32.876C205.39 33.356 206.026 33.596 206.83 33.596C207.346 33.596 207.796 33.5 208.18 33.308C208.564 33.116 209.05 32.762 209.638 32.246ZM204.166 29.492H208.828C208.792 28.796 208.576 28.25 208.18 27.854C207.784 27.446 207.244 27.242 206.56 27.242C205.924 27.242 205.396 27.44 204.976 27.836C204.568 28.22 204.298 28.772 204.166 29.492ZM221.371 30.464C221.371 31.892 220.993 33.044 220.237 33.92C219.481 34.796 218.521 35.234 217.357 35.234C216.121 35.234 215.179 34.808 214.531 33.956V38.24H212.551V25.964H214.387V27.242C215.047 26.222 216.043 25.712 217.375 25.712C218.539 25.712 219.493 26.15 220.237 27.026C220.993 27.902 221.371 29.048 221.371 30.464ZM218.689 32.696C219.133 32.132 219.355 31.388 219.355 30.464C219.355 29.54 219.139 28.802 218.707 28.25C218.275 27.686 217.693 27.404 216.961 27.404C216.205 27.404 215.593 27.686 215.125 28.25C214.669 28.802 214.441 29.54 214.441 30.464C214.441 31.4 214.675 32.144 215.143 32.696C215.611 33.248 216.217 33.524 216.961 33.524C217.681 33.524 218.257 33.248 218.689 32.696ZM231.809 30.482C231.809 31.886 231.377 33.038 230.513 33.938C229.661 34.826 228.563 35.27 227.219 35.27C225.863 35.27 224.753 34.826 223.889 33.938C223.037 33.05 222.611 31.898 222.611 30.482C222.611 29.054 223.037 27.896 223.889 27.008C224.753 26.12 225.863 25.676 227.219 25.676C228.563 25.676 229.661 26.126 230.513 27.026C231.377 27.914 231.809 29.066 231.809 30.482ZM224.627 30.482C224.627 31.418 224.861 32.174 225.329 32.75C225.797 33.314 226.427 33.596 227.219 33.596C227.987 33.596 228.605 33.314 229.073 32.75C229.553 32.174 229.793 31.418 229.793 30.482C229.793 29.534 229.559 28.778 229.091 28.214C228.623 27.638 227.999 27.35 227.219 27.35C226.427 27.35 225.797 27.638 225.329 28.214C224.861 28.778 224.627 29.534 224.627 30.482ZM241.549 25.964H244.411V35H242.557V31.238C242.557 29.882 242.581 28.586 242.629 27.35L242.467 27.836L242.089 28.934C241.897 29.474 241.711 29.972 241.531 30.428L239.857 35H238.093L236.419 30.428L235.339 27.368C235.387 28.628 235.411 29.918 235.411 31.238V35H233.575V25.964H236.509L237.913 29.798C238.333 30.902 238.699 31.982 239.011 33.038C239.455 31.634 239.821 30.554 240.109 29.798L241.549 25.964Z" fill="white"/>
</svg>
